# xmcd CD database file
#
# Track frame offsets:
#	150
#	22018
#	43950
#	60067
#	75664
#	99491
#	181961
#	204648
#	226196
#	248108
#	274175
#	293197
#	312671
#	333664
#
# Disc length: 4661 seconds
#
# Revision: 2
# Processed by: cddbd v1.5.2PL0 Copyright (c) Steve Scherf et al.
# Submitted via: CDex 1.81
#
DISCID=c712330e
DTITLE=Nina Simone - To Be Free [3 1969-1993]
DYEAR=2008
DGENRE=Jazz
TTITLE0=No Opportunity Necessary, No Experience Needed [live]
TTITLE1=Just Like a Woman
TTITLE2=Here Comes the Sun
TTITLE3=Tanywey
TTITLE4=Funkier Than a Mosquito's Tweeter [live]
TTITLE5=My Sweet Lord - Today Is a Killer [live]
TTITLE6=Let It Be Me [live]
TTITLE7=Poppies
TTITLE8=Mr. Bojangles [live]
TTITLE9=I Want a Little Sugar in My Bowl [live]
TTITLE10=Nina [live]
TTITLE11=Zungo [live]
TTITLE12=Baltimore
TTITLE13=A Single Woman
EXTD=YEAR: 2008
EXTT0=
EXTT1=
EXTT2=
EXTT3=
EXTT4=
EXTT5=
EXTT6=
EXTT7=
EXTT8=
EXTT9=
EXTT10=
EXTT11=
EXTT12=
EXTT13=
PLAYORDER=
